<svg xmlns="http://www.w3.org/2000/svg" width="289" height="187" viewBox="0 0 289 187">
    <g fill="#0779DC" fill-rule="evenodd">
        <path fill-rule="nonzero" d="M234.95 79.013c0-.763.128-1.526.128-2.288 0-41.302-32.96-74.725-73.62-74.725-29.334 0-54.532 17.41-66.367 42.573-5.154-2.605-10.944-4.13-17.053-4.13-18.77 0-34.424 13.915-37.414 32.088C18.098 80.283 2 101.824 2 127.177c0 31.898 25.516 57.76 56.95 57.823h176.064c28.76-.127 51.986-23.828 51.986-52.994.064-29.229-23.289-52.93-52.05-52.993zM93.281 43.722l2.712-.934a41.786 41.786 0 0 0-1.834-.872c-.3.597-.592 1.199-.878 1.806zM289 132.006c0 30.27-24.117 54.862-53.986 54.994H58.945C26.387 186.934 0 160.157 0 127.177c0-25.369 15.721-47.655 38.86-56.142 3.649-18.74 20.016-32.592 39.178-32.592 5.569 0 11.028 1.202 16.121 3.473C106.954 16.436 132.701 0 161.457 0c41.782 0 75.62 34.336 75.62 76.725 28.91 1.525 51.987 25.702 51.923 55.281z"/>
        <path d="M105.25 154.54V160h-3.42v-14.04h5.54c1.627 0 2.893.42 3.8 1.26.907.84 1.36 1.853 1.36 3.04 0 .813-.247 1.607-.74 2.38-.493.773-1.3 1.32-2.42 1.64l3.44 5.72h-4l-3.16-5.46h-.4zm0-5.98v3.38h2.12c.52 0 .93-.153 1.23-.46.3-.307.45-.71.45-1.21s-.153-.91-.46-1.23c-.307-.32-.713-.48-1.22-.48h-2.12zm18.44-2.64v2.6h-5.08v3.02h4.48v2.6h-4.48v3.26h5.08v2.6h-8.5v-14.08h8.5zm6.65 2.88c-.273.227-.41.553-.41.98 0 .427.127.77.38 1.03s.583.46.99.6c.407.14.86.273 1.36.4.5.127.997.28 1.49.46s.943.403 1.35.67c.407.267.737.643.99 1.13.253.487.38 1.07.38 1.75 0 1.187-.483 2.203-1.45 3.05s-2.24 1.27-3.82 1.27c-1.58 0-2.853-.38-3.82-1.14-.967-.76-1.45-1.84-1.45-3.24h3.64c.093 1.12.667 1.68 1.72 1.68.493 0 .88-.13 1.16-.39.28-.26.42-.59.42-.99s-.127-.727-.38-.98-.583-.453-.99-.6c-.407-.147-.86-.283-1.36-.41-.5-.127-.997-.283-1.49-.47a7.28 7.28 0 0 1-1.35-.67c-.407-.26-.737-.633-.99-1.12-.253-.487-.38-1.063-.38-1.73 0-1.307.487-2.353 1.46-3.14.973-.787 2.217-1.18 3.73-1.18s2.737.343 3.67 1.03c.933.687 1.42 1.77 1.46 3.25h-3.72c-.053-.507-.217-.897-.49-1.17-.273-.273-.623-.41-1.05-.41-.427 0-.777.113-1.05.34zm8.27-.24v-2.6h11.08v2.6h-3.84V160h-3.42v-11.44h-3.82zM166.65 160l-.78-2.36h-5.04l-.78 2.36h-3.64l4.88-14.08h4.16l4.86 14.08h-3.66zm-4.96-4.96h3.32l-1.66-5-1.66 5zm21-4.78c0 .947-.34 1.86-1.02 2.74-.36.453-.897.823-1.61 1.11-.713.287-1.557.43-2.53.43h-2.12V160h-3.42v-14.04h5.54c1.627 0 2.893.42 3.8 1.26.907.84 1.36 1.853 1.36 3.04zm-7.28 1.68h2.12c.52 0 .93-.153 1.23-.46.3-.307.45-.71.45-1.21s-.153-.91-.46-1.23c-.307-.32-.713-.48-1.22-.48h-2.12v3.38zm9.34 8.06v-14.04h3.42V160h-3.42z"/>
        <g fill-rule="nonzero">
            <path d="M144.226 78.077c6.23 0 11.301 5.118 11.301 11.403 0 6.286-5.072 11.404-11.301 11.404-6.23 0-11.302-5.118-11.302-11.404 0-6.285 5.072-11.403 11.302-11.403zm0-2.447c-7.564 0-13.727 6.207-13.727 13.85s6.163 13.851 13.727 13.851c7.563 0 13.727-6.219 13.727-13.85 0-7.632-6.164-13.851-13.727-13.851z"/>
            <path d="M146.696 63.448l1.113 5.985a2.462 2.462 0 0 0 1.698 1.902c1.268.379 2.48.88 3.583 1.48a2.42 2.42 0 0 0 2.514-.134l5.05-3.493 3.66 3.694-3.44 5.095a2.462 2.462 0 0 0-.132 2.548c.585 1.09 1.07 2.27 1.434 3.515a2.428 2.428 0 0 0 1.874 1.702l5.965 1.135v5.218l-5.965 1.123a2.412 2.412 0 0 0-1.874 1.703 19.03 19.03 0 0 1-1.467 3.582 2.462 2.462 0 0 0 .133 2.548l3.418 5.04-3.661 3.682-5.017-3.471a2.362 2.362 0 0 0-1.367-.423c-.397 0-.783.1-1.147.29-1.102.6-2.304 1.09-3.55 1.457a2.43 2.43 0 0 0-1.698 1.902l-1.113 5.985h-5.171l-1.125-6.052a2.438 2.438 0 0 0-1.676-1.891 19.01 19.01 0 0 1-3.407-1.435c-.364-.2-.76-.29-1.158-.29-.485 0-.959.145-1.367.423l-4.95 3.416-3.66-3.694 3.384-4.995a2.487 2.487 0 0 0 .132-2.548 18.141 18.141 0 0 1-1.444-3.538 2.428 2.428 0 0 0-1.874-1.702l-5.965-1.123v-5.218l5.965-1.124a2.428 2.428 0 0 0 1.874-1.702 18.875 18.875 0 0 1 1.411-3.47c.43-.802.375-1.78-.132-2.537l-3.43-5.062 3.661-3.694 4.984 3.438c.408.289.893.423 1.367.423.397 0 .794-.1 1.158-.3 1.07-.59 2.227-1.08 3.44-1.447A2.44 2.44 0 0 0 140.4 69.5l1.125-6.052h5.17zm.849-2.448h-6.858c-.651 0-1.268.523-1.379 1.157l-1.279 6.898a21.507 21.507 0 0 0-3.892 1.635l-5.678-3.927a1.405 1.405 0 0 0-.783-.234c-.375 0-.75.134-1.003.4l-4.851 4.896c-.452.456-.53 1.268-.166 1.802l3.914 5.763a21.065 21.065 0 0 0-1.598 3.927l-6.803 1.29c-.65.134-1.169.757-1.169 1.402v6.92c0 .657.518 1.28 1.147 1.39l6.792 1.291c.418 1.402.959 2.748 1.631 4.005l-3.87 5.708c-.364.534-.286 1.346.166 1.802l4.851 4.895c.265.267.64.4 1.003.4.276 0 .552-.077.783-.233l5.656-3.905a21.049 21.049 0 0 0 3.848 1.624l1.28 6.898c.12.634.738 1.157 1.378 1.157h6.857c.651 0 1.268-.523 1.379-1.157l1.268-6.831c1.4-.412 2.745-.968 4.013-1.647l5.722 3.95c.232.156.508.233.783.233.375 0 .75-.133 1.004-.4l4.85-4.895c.453-.456.53-1.268.166-1.802l-3.892-5.741a21.68 21.68 0 0 0 1.665-4.05l6.792-1.29c.628-.122 1.147-.745 1.147-1.39v-6.92c0-.657-.519-1.28-1.147-1.391l-6.803-1.29a21.557 21.557 0 0 0-1.62-3.972l3.935-5.808c.364-.534.287-1.346-.165-1.802l-4.851-4.895a1.42 1.42 0 0 0-1.004-.4c-.275 0-.55.077-.782.233l-5.756 3.972a20.639 20.639 0 0 0-4.057-1.669l-1.268-6.83c-.089-.646-.706-1.169-1.356-1.169z"/>
        </g>
    </g>
</svg>
