<?xml version="1.0" encoding="utf-8"?>
<!-- Generator: Adobe Illustrator 16.0.0, SVG Export Plug-In . SVG Version: 6.00 Build 0)  -->
<!DOCTYPE svg PUBLIC "-//W3C//DTD SVG 1.1//EN" "http://www.w3.org/Graphics/SVG/1.1/DTD/svg11.dtd">
<svg version="1.1" id="Layer_1" xmlns="http://www.w3.org/2000/svg" xmlns:xlink="http://www.w3.org/1999/xlink" x="0px" y="0px"
	 width="202px" height="212.598px" viewBox="-11.5 -36.799 202 212.598" enable-background="new -11.5 -36.799 202 212.598"
	 xml:space="preserve">
<title>rest_apis</title>
<desc>Created with Sketch.</desc>
<g id="Screens">
	<g id="homepage" transform="translate(-341.000000, -1337.000000)">
		<g id="rest_apis" transform="translate(341.000000, 1337.000000)">
			<g id="back">
				<g id="Group" transform="translate(0.000000, 19.312816)">
					<path id="Shape" fill="#182D3D" d="M120.669,20.084L77.76-18.921c-1.38-1.289-3.05-2.271-4.884-2.878
						c-1.571-0.529-3.278-0.587-4.885-0.167l-24.437,7.202c-0.413,0.125-0.808,0.29-1.184,0.49L-2.172,3.146l-1.44,5.07
						l0.705,59.842l49.943,44.948l46.353-11.315l27.281-12.817c3.01-0.861,4.884-3.631,4.884-7.23V30.361
						C125.553,26.762,123.679,22.825,120.669,20.084z"/>
					<path id="Shape_1_" fill="#FFFFFF" d="M89.255,33.273L48.125-5.022c-1.318-1.261-2.923-2.227-4.696-2.823
						c-1.506-0.524-3.152-0.583-4.695-0.167L-2.397,4.029c-2.885,0.843-4.696,3.564-4.696,7.099v50.335
						c0,3.535,1.795,7.398,4.696,10.091l41.13,38.295c1.32,1.261,2.925,2.226,4.695,2.823c1.508,0.523,3.153,0.583,4.696,0.167
						l41.13-12.042c2.886-0.842,4.695-3.563,4.695-7.1V43.358C93.937,39.847,92.141,35.96,89.255,33.273z"/>
					<path id="Shape_2_" fill="#345470" d="M93.413,32.92L50.504-6.086c-1.379-1.289-3.048-2.272-4.884-2.878
						c-1.571-0.528-3.277-0.587-4.883-0.166L-2.172,3.126c-3.01,0.863-4.884,3.633-4.884,7.231V61.63
						c0,3.599,1.874,7.535,4.884,10.295l42.91,39.007c1.379,1.289,3.048,2.272,4.883,2.877c1.571,0.529,3.277,0.588,4.884,0.167
						l42.909-12.256c3.012-0.863,4.884-3.633,4.884-7.232V43.191C98.297,39.592,96.425,35.655,93.413,32.92z M53.234,57.924
						l-7.614-2.389v49.517c0,1.162-1.195,1.173-1.941,0.49L1.188,66.914c-0.935-0.839-1.481-1.989-1.523-3.204V12.456
						c0-1.127,0.579-1.985,1.523-2.255L43.679-1.948c0.746-0.235,1.941,0.52,1.941,1.681v32.358l7.306,2.28
						c3.976,1.24,6.325,2.76,8.515,5.608c2.196,2.78,3.366,6.157,3.335,9.619c0,7.81-3.982,10.683-11.526,8.334L53.234,57.924z
						 M81.317,78.388l-8.804-2.751V40.46l8.821,2.75v35.187L81.317,78.388z M55.529,46.824c0,3.113-1.476,4.021-4.894,2.941
						l-5.026-1.569v-8.825l5.079,1.583c3.225,1.04,4.858,3.025,4.858,5.874L55.529,46.824z M17.113,52.26l-2.349,5.393l-9.329-2.907
						l13.046-31.117l9.66,2.981L40.94,65.787l-9.435-2.941l-2.211-6.781L17.113,52.26z M23.283,35.984l-3.722,10.08l7.342,2.29
						L23.283,35.984z"/>
				</g>
				<g id="Group_1_" transform="translate(78.255049, 0.000000)">
					<path id="Shape_3_" fill="#42CC70" d="M108.104,6.73c0.009-16.663-11.658-31.344-28.664-36.072
						c-17.006-4.727-35.297,1.626-44.939,15.611c-9.644,13.985-8.339,32.266,3.204,44.916c2.637,4.702,9.395,19.038,0.806,29.49
						c0,0,42.731-9.668,59.486-28.99C104.515,24.816,108.113,15.933,108.104,6.73L108.104,6.73z"/>
					<path id="_x32_00-OK" fill="#FFFFFF" d="M39.619,13.246h8.897v-2.617h-2.05c-0.543,0-1.432,0.073-2.051,0.146
						c1.663-1.6,3.521-3.635,3.521-5.489c0-2.29-1.741-3.78-4.217-3.78c-1.819,0-2.979,0.581-4.257,1.854l1.781,1.672
						c0.579-0.546,1.198-1.091,2.012-1.091c0.889,0,1.508,0.491,1.508,1.527c0,1.563-2.242,3.49-5.145,5.998V13.246z M54.592,13.464
						c-2.709,0-4.567-2.09-4.567-6.034s1.858-5.925,4.567-5.925c2.707,0,4.564,2,4.564,5.925
						C59.156,11.375,57.299,13.464,54.592,13.464z M54.592,11.066c0.772,0,1.43-0.583,1.43-3.635s-0.657-3.525-1.43-3.525
						c-0.774,0-1.433,0.473-1.433,3.525S53.817,11.066,54.592,11.066z M65.037,13.464c-2.709,0-4.565-2.09-4.565-6.034
						s1.856-5.925,4.565-5.925c2.707,0,4.564,2,4.564,5.925C69.601,11.375,67.744,13.464,65.037,13.464z M65.037,11.066
						c0.772,0,1.43-0.583,1.43-3.635s-0.657-3.525-1.43-3.525c-0.774,0-1.433,0.473-1.433,3.525S64.263,11.066,65.037,11.066z
						 M81.013,13.464c-3.481,0-5.841-2.29-5.841-6.179s2.359-6.07,5.841-6.07c3.482,0,5.842,2.199,5.842,6.07
						C86.854,11.175,84.495,13.464,81.013,13.464z M81.013,10.775c1.51,0,2.439-1.345,2.439-3.49c0-2.145-0.93-3.38-2.439-3.38
						c-1.507,0-2.436,1.235-2.436,3.38C78.577,9.43,79.506,10.775,81.013,10.775z M89.098,13.246h3.328v-2.944l1.199-1.599
						l2.785,4.543h3.636L95.56,6.231l3.752-4.798h-3.636l-3.173,4.398h-0.077V1.433h-3.328V13.246z"/>
				</g>
				<ellipse id="Oval" opacity="0.15" enable-background="new    " cx="57.158" cy="159.239" rx="25.469" ry="10.58"/>
			</g>
		</g>
	</g>
</g>
</svg>
